<?xml version="1.0" standalone="no"?>
<!DOCTYPE svg PUBLIC "-//W3C//DTD SVG 20010904//EN"
 "http://www.w3.org/TR/2001/REC-SVG-20010904/DTD/svg10.dtd">
<svg version="1.0" xmlns="http://www.w3.org/2000/svg"
 width="1024.000000pt" height="1024.000000pt" viewBox="0 0 1024.000000 1024.000000"
 preserveAspectRatio="xMidYMid meet">
<metadata>
Created by potrace 1.11, written by Peter Selinger 2001-2013
</metadata>
<g transform="translate(0.000000,1024.000000) scale(0.100000,-0.100000)"
fill="#000000" stroke="none">
<path d="M0 5120 l0 -5120 5120 0 5120 0 0 5120 0 5120 -5120 0 -5120 0 0
-5120z m2029 3520 c327 -93 567 -340 648 -667 26 -106 24 -314 -5 -423 -146
-546 -741 -830 -1248 -595 -377 174 -585 578 -508 986 32 171 114 327 239 454
90 92 141 129 253 185 69 34 182 70 267 83 71 12 281 -2 354 -23z m6480 0
c216 -61 397 -191 515 -369 163 -244 197 -536 96 -812 -46 -128 -102 -213
-209 -320 -146 -147 -307 -228 -513 -260 -159 -25 -354 8 -513 86 -315 155
-504 456 -505 803 0 185 49 350 151 502 142 212 363 351 624 393 71 12 281 -2
354 -23z m-3341 -603 c106 -31 179 -77 261 -162 73 -77 132 -184 150 -273 14
-66 14 -192 1 -263 -18 -96 -84 -215 -165 -294 -236 -234 -601 -232 -835 4
-150 151 -208 342 -165 545 44 210 219 394 426 450 87 23 232 20 327 -7z
m-2770 -1262 c71 -14 263 -74 299 -93 6 -4 -59 -7 -145 -7 -174 0 -235 -12
-374 -70 -224 -94 -425 -295 -538 -537 -97 -208 -141 -421 -141 -686 0 -199
33 -348 111 -502 135 -268 370 -479 850 -765 211 -125 424 -271 550 -377 252
-211 505 -507 569 -665 7 -18 16 -33 20 -33 3 0 17 26 31 57 48 112 208 311
396 493 201 194 405 354 631 495 239 148 439 282 539 362 248 199 396 408 466
659 20 70 22 103 22 299 0 191 -3 234 -23 325 -60 278 -165 485 -333 652 -72
73 -232 183 -279 193 -38 8 -121 -36 -225 -120 -261 -209 -410 -532 -446 -961
-23 -283 33 -521 173 -733 65 -98 202 -248 293 -321 31 -25 56 -48 56 -52 0
-7 -770 -535 -794 -544 -15 -6 -122 106 -207 217 -149 195 -232 378 -286 629
-25 118 -25 547 0 695 82 474 280 850 577 1096 526 435 1260 405 1765 -73 287
-271 454 -637 510 -1114 68 -585 -80 -1017 -481 -1405 -187 -180 -351 -299
-814 -589 -135 -85 -302 -194 -371 -242 -488 -342 -1015 -886 -1167 -1205
l-35 -75 -18 43 c-80 205 -382 574 -695 848 -247 217 -410 333 -804 571 -536
325 -778 505 -972 725 -197 224 -311 450 -375 748 -25 114 -25 493 0 652 68
433 218 761 466 1018 219 227 488 364 796 406 93 13 300 6 403 -14z m5756 -30
c282 -53 506 -173 711 -379 280 -281 444 -670 486 -1156 37 -422 -51 -775
-269 -1079 -78 -110 -270 -308 -392 -405 -159 -125 -245 -183 -801 -536 -331
-210 -600 -427 -879 -710 -243 -245 -411 -457 -492 -620 l-43 -85 -36 75 c-82
170 -263 404 -484 626 -222 223 -431 393 -685 560 -71 46 -130 87 -130 89 0 3
767 531 797 549 7 4 50 -30 108 -86 172 -164 340 -373 398 -496 l30 -63 39 73
c80 148 250 347 478 560 197 185 338 286 769 557 507 319 721 577 797 961 22
113 15 390 -15 530 -99 477 -355 786 -752 908 -100 31 -249 45 -344 33 -44 -5
-81 -8 -83 -6 -6 5 149 62 213 78 52 13 103 22 240 41 55 8 260 -3 339 -19z"/>
</g>
</svg>
